<svg xmlns="http://www.w3.org/2000/svg" xmlns:v="https://svgstorm.com"
viewBox = "0 0 137 176"
width="137"
height="176">
<g fill="None" fill-opacity="0.0" stroke="#D9D9D7" stroke-opacity="1.00" stroke-width="0.3"><path d="
M 0.00 176.00 
L 137.00 176.00
L 137.00 0.00
L 0.00 0.00
L 0.00 176.00
M 126.00 24.00 
C 128.65 27.67 128.21 44.17 127.00 49.00
C 124.98 57.01 101.62 56.51 99.00 50.00
C 97.14 45.38 95.34 24.06 101.00 22.00
C 105.31 20.43 123.57 20.64 126.00 24.00
M 84.00 81.00 
C 82.34 85.61 71.78 83.79 67.33 83.67 C 62.88 83.55 49.43 80.22 49.00 85.00
C 52.27 92.34 64.65 91.34 71.07 94.93 C 77.50 98.51 85.22 100.94 89.30 108.70 C 93.39 116.45 93.93 126.45 91.00 135.00
C 89.55 142.90 84.76 150.82 76.32 154.32 C 67.89 157.83 53.55 161.24 45.00 159.00 C 36.45 156.76 18.50 159.84 17.00 151.00
C 16.12 145.79 17.91 135.13 20.33 130.33 C 22.74 125.53 36.65 132.57 41.00 131.00 C 45.36 129.43 60.09 136.23 62.00 129.00
C 43.45 121.86 19.35 117.06 19.00 94.00
C 15.77 80.34 21.63 61.29 37.22 58.22 C 52.81 55.16 71.81 54.94 87.00 60.00
C 86.97 67.24 86.01 74.27 84.00 81.00 Z"/>
</g>
<g fill="None" fill-opacity="0.0" stroke="#D09D9B" stroke-opacity="1.00" stroke-width="0.3"><path d="
M 99.00 50.00 
C 101.51 52.51 109.70 50.92 113.00 51.00 C 116.30 51.08 125.17 52.54 127.00 49.00
C 128.21 44.17 128.65 27.67 126.00 24.00
C 129.34 30.76 124.33 35.83 126.00 44.00 C 127.67 52.17 116.48 48.55 111.00 50.00 C 105.52 51.45 95.79 47.82 99.00 41.00 C 102.21 34.18 94.21 25.51 101.00 22.00
C 95.34 24.06 97.14 45.38 99.00 50.00 Z"/>
</g>
<g fill="None" fill-opacity="0.0" stroke="#E35B59" stroke-opacity="1.00" stroke-width="0.3"><path d="
M 126.00 24.00 
C 123.57 20.64 105.31 20.43 101.00 22.00
C 94.21 25.51 102.21 34.18 99.00 41.00 C 95.79 47.82 105.52 51.45 111.00 50.00 C 116.48 48.55 127.67 52.17 126.00 44.00 C 124.33 35.83 129.34 30.76 126.00 24.00 Z"/>
</g>
<g fill="None" fill-opacity="0.0" stroke="#B6B6B5" stroke-opacity="1.00" stroke-width="0.3"><path d="
M 99.00 50.00 
C 101.62 56.51 124.98 57.01 127.00 49.00
C 125.17 52.54 116.30 51.08 113.00 51.00 C 109.70 50.92 101.51 52.51 99.00 50.00 Z"/>
</g>
<g fill="None" fill-opacity="0.0" stroke="#000000" stroke-opacity="1.00" stroke-width="0.3"><path d="
M 19.00 94.00 
C 20.34 99.65 23.76 106.68 28.75 110.25 C 33.74 113.81 41.79 116.18 46.68 118.32 C 51.57 120.46 63.97 121.51 62.00 129.00
C 60.09 136.23 45.36 129.43 41.00 131.00 C 36.65 132.57 22.74 125.53 20.33 130.33 C 17.91 135.13 16.12 145.79 17.00 151.00
C 39.49 154.56 81.17 163.74 91.00 135.00
C 93.93 126.45 93.39 116.45 89.30 108.70 C 85.22 100.94 77.50 98.51 71.07 94.93 C 64.65 91.34 52.27 92.34 49.00 85.00
C 46.29 78.94 57.84 77.97 63.00 80.00 C 68.16 82.03 79.24 78.41 84.00 81.00
C 86.01 74.27 86.97 67.24 87.00 60.00
C 71.81 54.94 52.81 55.16 37.22 58.22 C 21.63 61.29 15.77 80.34 19.00 94.00 Z"/>
</g>
<g fill="None" fill-opacity="0.0" stroke="#A4A4A2" stroke-opacity="1.00" stroke-width="0.3"><path d="
M 49.00 85.00 
C 49.43 80.22 62.88 83.55 67.33 83.67 C 71.78 83.79 82.34 85.61 84.00 81.00
C 79.24 78.41 68.16 82.03 63.00 80.00 C 57.84 77.97 46.29 78.94 49.00 85.00 Z"/>
</g>
<g fill="None" fill-opacity="0.0" stroke="#B1B1B0" stroke-opacity="1.00" stroke-width="0.3"><path d="
M 62.00 129.00 
C 63.97 121.51 51.57 120.46 46.68 118.32 C 41.79 116.18 33.74 113.81 28.75 110.25 C 23.76 106.68 20.34 99.65 19.00 94.00
C 19.35 117.06 43.45 121.86 62.00 129.00 Z"/>
</g>
<g fill="None" fill-opacity="0.0" stroke="#ACACAB" stroke-opacity="1.00" stroke-width="0.3"><path d="
M 17.00 151.00 
C 18.50 159.84 36.45 156.76 45.00 159.00 C 53.55 161.24 67.89 157.83 76.32 154.32 C 84.76 150.82 89.55 142.90 91.00 135.00
C 81.17 163.74 39.49 154.56 17.00 151.00 Z"/>
</g>
<g fill="#D9D9D7" fill-opacity="1.00" stroke="None">
<path d="
M 0.00 176.00 
L 137.00 176.00
L 137.00 0.00
L 0.00 0.00
L 0.00 176.00
M 126.00 24.00 
C 128.65 27.67 128.21 44.17 127.00 49.00
C 124.98 57.01 101.62 56.51 99.00 50.00
C 97.14 45.38 95.34 24.06 101.00 22.00
C 105.31 20.43 123.57 20.64 126.00 24.00
M 84.00 81.00 
C 82.34 85.61 71.78 83.79 67.33 83.67 C 62.88 83.55 49.43 80.22 49.00 85.00
C 52.27 92.34 64.65 91.34 71.07 94.93 C 77.50 98.51 85.22 100.94 89.30 108.70 C 93.39 116.45 93.93 126.45 91.00 135.00
C 89.55 142.90 84.76 150.82 76.32 154.32 C 67.89 157.83 53.55 161.24 45.00 159.00 C 36.45 156.76 18.50 159.84 17.00 151.00
C 16.12 145.79 17.91 135.13 20.33 130.33 C 22.74 125.53 36.65 132.57 41.00 131.00 C 45.36 129.43 60.09 136.23 62.00 129.00
C 43.45 121.86 19.35 117.06 19.00 94.00
C 15.77 80.34 21.63 61.29 37.22 58.22 C 52.81 55.16 71.81 54.94 87.00 60.00
C 86.97 67.24 86.01 74.27 84.00 81.00 Z"/>
</g>
<g fill="#D09D9B" fill-opacity="1.00" stroke="None">
<path d="
M 99.00 50.00 
C 101.51 52.51 109.70 50.92 113.00 51.00 C 116.30 51.08 125.17 52.54 127.00 49.00
C 128.21 44.17 128.65 27.67 126.00 24.00
C 129.34 30.76 124.33 35.83 126.00 44.00 C 127.67 52.17 116.48 48.55 111.00 50.00 C 105.52 51.45 95.79 47.82 99.00 41.00 C 102.21 34.18 94.21 25.51 101.00 22.00
C 95.34 24.06 97.14 45.38 99.00 50.00 Z"/>
</g>
<g fill="#E35B59" fill-opacity="1.00" stroke="None">
<path d="
M 126.00 24.00 
C 123.57 20.64 105.31 20.43 101.00 22.00
C 94.21 25.51 102.21 34.18 99.00 41.00 C 95.79 47.82 105.52 51.45 111.00 50.00 C 116.48 48.55 127.67 52.17 126.00 44.00 C 124.33 35.83 129.34 30.76 126.00 24.00 Z"/>
</g>
<g fill="#B6B6B5" fill-opacity="1.00" stroke="None">
<path d="
M 99.00 50.00 
C 101.62 56.51 124.98 57.01 127.00 49.00
C 125.17 52.54 116.30 51.08 113.00 51.00 C 109.70 50.92 101.51 52.51 99.00 50.00 Z"/>
</g>
<g fill="#000000" fill-opacity="1.00" stroke="None">
<path d="
M 19.00 94.00 
C 20.34 99.65 23.76 106.68 28.75 110.25 C 33.74 113.81 41.79 116.18 46.68 118.32 C 51.57 120.46 63.97 121.51 62.00 129.00
C 60.09 136.23 45.36 129.43 41.00 131.00 C 36.65 132.57 22.74 125.53 20.33 130.33 C 17.91 135.13 16.12 145.79 17.00 151.00
C 39.49 154.56 81.17 163.74 91.00 135.00
C 93.93 126.45 93.39 116.45 89.30 108.70 C 85.22 100.94 77.50 98.51 71.07 94.93 C 64.65 91.34 52.27 92.34 49.00 85.00
C 46.29 78.94 57.84 77.97 63.00 80.00 C 68.16 82.03 79.24 78.41 84.00 81.00
C 86.01 74.27 86.97 67.24 87.00 60.00
C 71.81 54.94 52.81 55.16 37.22 58.22 C 21.63 61.29 15.77 80.34 19.00 94.00 Z"/>
</g>
<g fill="#A4A4A2" fill-opacity="1.00" stroke="None">
<path d="
M 49.00 85.00 
C 49.43 80.22 62.88 83.55 67.33 83.67 C 71.78 83.79 82.34 85.61 84.00 81.00
C 79.24 78.41 68.16 82.03 63.00 80.00 C 57.84 77.97 46.29 78.94 49.00 85.00 Z"/>
</g>
<g fill="#B1B1B0" fill-opacity="1.00" stroke="None">
<path d="
M 62.00 129.00 
C 63.97 121.51 51.57 120.46 46.68 118.32 C 41.79 116.18 33.74 113.81 28.75 110.25 C 23.76 106.68 20.34 99.65 19.00 94.00
C 19.35 117.06 43.45 121.86 62.00 129.00 Z"/>
</g>
<g fill="#ACACAB" fill-opacity="1.00" stroke="None">
<path d="
M 17.00 151.00 
C 18.50 159.84 36.45 156.76 45.00 159.00 C 53.55 161.24 67.89 157.83 76.32 154.32 C 84.76 150.82 89.55 142.90 91.00 135.00
C 81.17 163.74 39.49 154.56 17.00 151.00 Z"/>
</g>
</svg>